<?xml version="1.0" encoding="utf-8"?>
<!-- Generator: Adobe Illustrator 16.0.0, SVG Export Plug-In . SVG Version: 6.00 Build 0)  -->
<!DOCTYPE svg PUBLIC "-//W3C//DTD SVG 1.1//EN" "http://www.w3.org/Graphics/SVG/1.1/DTD/svg11.dtd">
<svg version="1.1" id="Layer_1" xmlns="http://www.w3.org/2000/svg" xmlns:xlink="http://www.w3.org/1999/xlink" x="0px" y="0px"
	 width="639px" height="168px" viewBox="0 0 639 168" enable-background="new 0 0 639 168" xml:space="preserve">
<g>
	<path fill="#D8973D" d="M41.637,116.956v-57.43h26.171c4.922,0,8.86,1.286,11.814,3.855c2.954,2.571,4.43,5.635,4.43,9.189v31.34
		c0,3.556-1.477,6.618-4.43,9.189c-2.954,2.572-6.892,3.856-11.814,3.856H41.637z M66.331,70.274H53.778v35.934h12.553
		c1.641,0,2.995-0.422,4.061-1.271c1.067-0.847,1.6-2.064,1.6-3.651V75.196c0-1.585-0.533-2.802-1.6-3.651
		C69.326,70.698,67.972,70.274,66.331,70.274z"/>
	<path fill="#004972" d="M116.376,116.956h-12.06V70.191H90.533V59.444h38.396l3.495,10.747h-16.047V116.956z"/>
	<path fill="#D8973D" d="M123.253,50.928h15.034c-12.59-23.271-37.214-39.084-65.533-39.084c-23.497,0-44.439,10.899-58.086,27.901
		c12.659-12.104,30.209-19.611,49.616-19.611C89.114,20.134,110.864,32.441,123.253,50.928z"/>
	<path fill="#004972" d="M128.105,59.464c3.856,8.21,6.042,17.282,6.042,26.846c0,36.546-31.278,66.172-69.864,66.172
		c-19.412,0-36.963-7.51-49.625-19.617c13.647,17.009,34.593,27.906,58.095,27.906c41.126,0,74.464-33.337,74.464-74.461
		c0-9.466-1.787-18.516-5.009-26.846H128.105z"/>
</g>
<rect x="164.255" y="36.088" fill="#C4C4C4" width="6.745" height="100.438"/>
<g>
	<g>
		<path fill="#004972" d="M224.907,124.067c-4.498,0-8.709-0.604-12.637-1.813c-3.927-1.208-7.501-2.936-10.724-5.185
			c-3.222-2.249-5.991-4.934-8.307-8.056c-2.316-3.121-4.095-6.578-5.337-10.371c-1.243-3.792-1.863-7.837-1.863-12.133
			c0-4.363,0.62-8.458,1.863-12.285c1.242-3.826,3.021-7.315,5.337-10.472c2.316-3.154,5.085-5.856,8.307-8.105
			c3.223-2.249,6.797-3.993,10.724-5.236c3.927-1.241,8.139-1.863,12.637-1.863c5.168,0,9.951,0.823,14.349,2.468
			c4.396,1.646,8.272,3.994,11.629,7.048c3.356,3.055,5.974,6.763,7.854,11.126l-19.836,5.437c-3.222-5.37-7.922-8.055-14.097-8.055
			c-3.491,0-6.595,0.84-9.314,2.517c-2.718,1.679-4.833,3.978-6.343,6.897c-1.51,2.92-2.266,6.293-2.266,10.12
			c0,2.887,0.454,5.555,1.359,8.005c0.906,2.451,2.198,4.566,3.877,6.344c1.677,1.779,3.658,3.156,5.94,4.128
			c2.281,0.974,4.766,1.46,7.451,1.46c2.482,0,4.732-0.402,6.747-1.208c2.014-0.806,3.741-1.913,5.186-3.323
			c1.443-1.41,2.467-3.054,3.071-4.934h-14.298V80.669h35.343v8.76c0,5.035-0.906,9.666-2.718,13.896
			c-1.813,4.229-4.365,7.889-7.653,10.975c-3.29,3.089-7.166,5.488-11.63,7.2C235.092,123.211,230.208,124.067,224.907,124.067z"/>
		<path fill="#004972" d="M276.157,122.053V50.562h20.138v53.77h27.086v17.722H276.157z"/>
		<path fill="#004972" d="M373.023,124.067c-4.43,0-8.593-0.604-12.486-1.813c-3.894-1.208-7.435-2.953-10.623-5.236
			c-3.189-2.281-5.94-4.967-8.256-8.055c-2.316-3.087-4.096-6.545-5.337-10.371c-1.243-3.827-1.863-7.887-1.863-12.184
			c0-4.295,0.637-8.357,1.913-12.184c1.274-3.826,3.071-7.3,5.387-10.422c2.315-3.121,5.068-5.822,8.256-8.105
			c3.188-2.281,6.747-4.043,10.673-5.286c3.927-1.241,8.106-1.863,12.536-1.863c4.431,0,8.592,0.604,12.486,1.813
			c3.893,1.208,7.434,2.955,10.623,5.236c3.188,2.282,5.94,4.968,8.257,8.055c2.316,3.088,4.094,6.545,5.336,10.371
			c1.241,3.827,1.863,7.889,1.863,12.184c0,4.297-0.639,8.357-1.913,12.184c-1.276,3.826-3.071,7.3-5.387,10.422
			c-2.316,3.121-5.069,5.824-8.256,8.105c-3.189,2.283-6.747,4.045-10.673,5.287C381.632,123.445,377.454,124.067,373.023,124.067z
			 M373.124,105.54c2.618,0,5-0.469,7.149-1.41c2.148-0.94,4.028-2.282,5.639-4.028c1.611-1.745,2.852-3.776,3.726-6.092
			c0.872-2.316,1.309-4.884,1.309-7.703s-0.437-5.387-1.309-7.703c-0.874-2.316-2.115-4.346-3.726-6.092
			c-1.611-1.745-3.491-3.087-5.639-4.028c-2.149-0.939-4.531-1.41-7.149-1.41s-5.001,0.471-7.149,1.41
			c-2.149,0.941-4.028,2.283-5.639,4.028c-1.611,1.746-2.854,3.775-3.726,6.092c-0.873,2.316-1.309,4.883-1.309,7.703
			s0.436,5.387,1.309,7.703c0.872,2.316,2.115,4.347,3.726,6.092c1.611,1.746,3.49,3.088,5.639,4.028
			C368.122,105.071,370.506,105.54,373.124,105.54z"/>
		<path fill="#D8973D" d="M426.892,122.053V50.562h28.395c5.168,0,9.599,0.755,13.292,2.266c3.691,1.511,6.545,3.676,8.558,6.495
			c2.014,2.819,3.021,6.177,3.021,10.069c0,3.29-0.755,6.227-2.266,8.811c-1.51,2.585-3.642,4.616-6.394,6.092
			c3.691,1.41,6.561,3.625,8.609,6.646c2.047,3.021,3.071,6.545,3.071,10.573c0,4.163-1.107,7.788-3.323,10.875
			c-2.215,3.088-5.371,5.472-9.465,7.149c-4.096,1.678-8.962,2.517-14.601,2.517H426.892z M445.52,65.666v12.989h7.955
			c2.483,0,4.363-0.554,5.639-1.662c1.274-1.108,1.913-2.701,1.913-4.783c0-2.08-0.639-3.691-1.913-4.833
			c-1.276-1.141-3.156-1.712-5.639-1.712H445.52z M445.52,106.949h9.968c2.752,0,4.849-0.62,6.293-1.863
			c1.443-1.241,2.165-3.037,2.165-5.387c0-2.349-0.722-4.144-2.165-5.387c-1.444-1.241-3.542-1.863-6.293-1.863h-9.968V106.949z"/>
		<path fill="#D8973D" d="M490.227,122.053l28.093-71.492h21.447l28.193,71.492h-21.044l-4.431-12.486h-27.59l-4.33,12.486H490.227z
			 M520.435,93.759h16.513l-8.256-23.461L520.435,93.759z"/>
		<path fill="#D8973D" d="M580.546,122.053V50.562h20.139v53.77h27.086v17.722H580.546z"/>
	</g>
</g>
</svg>
